<?xml version="1.0" encoding="UTF-8"?>
<!DOCTYPE svg PUBLIC "-//W3C//DTD SVG 1.1//EN" "http://www.w3.org/Graphics/SVG/1.1/DTD/svg11.dtd">
<!-- Creator: CorelDRAW -->
<svg xmlns="http://www.w3.org/2000/svg" xml:space="preserve" width="42.3332mm" height="42.3332mm" version="1.1" style="shape-rendering:geometricPrecision; text-rendering:geometricPrecision; image-rendering:optimizeQuality; fill-rule:evenodd; clip-rule:evenodd"
viewBox="0 0 4233.32 4233.32"
 xmlns:xlink="http://www.w3.org/1999/xlink"
 xmlns:xodm="http://www.corel.com/coreldraw/odm/2003">
 <defs>
  <style type="text/css">
   <![CDATA[
    .fil0 {fill:#986dff}
   ]]>
  </style>
 </defs>
 <g id="Camada_x0020_1">
  <metadata id="CorelCorpID_0Corel-Layer"/>
  <g id="_2513658620560">
   <path class="fil0" d="M455 2929.51l1389.8 0c16.3,61.04 38.62,79.43 119.13,79.43l615.49 0c156.68,0 19.61,-83.28 297.19,-80.04l1191.88 0.61 -46.29 112.56c-30.56,33.14 -55.79,46.29 -112.54,46.29l-3315.67 0c-40.38,0 -59.99,-24.64 -86.2,-52.81 -51.19,-54.99 -28.26,-51.14 -52.79,-106.04zm3792.18 -73l0 92.86c0,138.62 -141.05,317.68 -377.24,317.68l-3236.25 0c-210.46,0 -357.38,-190.93 -357.38,-317.68l0 -92.86c3.19,-117.93 36.77,-105.69 317.68,-105.69l0 -1846.45c0,-66.9 35.08,-138.99 99.26,-138.99l3136.99 0c64.18,0 99.26,72.09 99.26,138.99l0 1846.45c280.91,0 314.49,-12.24 317.68,105.69zm-3474.5 -1912.44l2978.15 0 0 1806.75 -2978.15 0 0 -1806.75z"/>
   <path class="fil0" d="M1884.5 2433.16c0,64.65 47.21,79.43 99.29,79.43 75.58,0 131.23,-163.19 165.44,-231.64l410.33 -840.5c0,-47.89 -53.51,-107.45 -110.94,-92.63 -71.95,18.59 -223.06,383.38 -259.66,456.62 -41.32,82.61 -304.46,586.35 -304.46,628.72z"/>
   <path class="fil0" d="M1328.59 1916.95c0,82.67 354.12,436.79 436.81,436.79 64.65,0 79.4,-47.21 79.4,-99.27 0,-65.24 -250.49,-266.86 -297.82,-337.52 35.55,-53.11 297.82,-297.79 297.82,-317.68 0,-100.86 -57.66,-128.55 -119.41,-100.22 -11.98,5.51 -396.8,352.74 -396.8,417.9z"/>
   <path class="fil0" d="M2599.26 1559.57c34.55,148.21 235.87,255.05 317.68,377.22l-302.64 295.52c-20.73,40.9 -19.16,121.43 84.25,121.43 51.52,0 416.92,-365.4 416.92,-416.95 0,-111.46 -156.03,-225.31 -223.34,-292.84 -93.99,-94.32 -191.4,-235.91 -292.87,-84.38z"/>
  </g>
 </g>
</svg>
